<svg xmlns="http://www.w3.org/2000/svg" width="517.129" height="438" viewBox="0 0 517.129 438">
  <g id="ilustrasi" transform="translate(-113.461 -193.025)">
    <path id="Path_2635" data-name="Path 2635" d="M367.965,156.818a45.105,45.105,0,1,1-13.209-31.945,45.158,45.158,0,0,1,13.209,31.945Z" transform="translate(128.541 121.327)" fill="#64dbb2" stroke="#64dbb2" stroke-miterlimit="10" stroke-width="1"/>
    <circle id="Ellipse_189" data-name="Ellipse 189" cx="14.781" cy="14.781" r="14.781" transform="translate(434.885 250.404) rotate(-7.04)" fill="#fff"/>
    <path id="Path_2636" data-name="Path 2636" d="M346.731,176.512a45.184,45.184,0,0,1-55.991,0c2.885-12.709,5.548-23.608,8.3-26.455,3.935-3.935,14.283-6.178,19.674-6.178s16.264,2.754,18.27,4.761C341.078,152.733,344.607,164,346.731,176.512Z" transform="translate(132.62 131.366)" fill="#fff"/>
    <path id="Path_2637" data-name="Path 2637" d="M262.61,238.914v-22.3A11.017,11.017,0,0,1,273.627,205.6h70.248a11.017,11.017,0,0,1,11.057,11.017v22.3a11.017,11.017,0,0,1-11.017,11.017h-70.3A11.017,11.017,0,0,1,262.61,238.914Z" transform="translate(123.855 150.597)" fill="#64dbb2"/>
    <path id="Path_2638" data-name="Path 2638" d="M293.306,230.06l-34,33.117,55.1-27.845" transform="translate(122.827 158.218)" fill="#64dbb2"/>
    <path id="Path_2639" data-name="Path 2639" d="M269.11,213.948v-.118a1.639,1.639,0,0,1,1.639-1.639H305.48a1.639,1.639,0,0,1,1.639,1.639v.118a1.639,1.639,0,0,1-1.639,1.639H270.749A1.639,1.639,0,0,1,269.11,213.948Z" transform="translate(125.88 152.65)" fill="#fff"/>
    <path id="Path_2640" data-name="Path 2640" d="M299.28,213.948v-.118a1.639,1.639,0,0,1,1.639-1.639H331.23a1.639,1.639,0,0,1,1.639,1.639v.118a1.639,1.639,0,0,1-1.639,1.639H300.919A1.639,1.639,0,0,1,299.28,213.948Z" transform="translate(135.28 152.65)" fill="#fff"/>
    <path id="Path_2641" data-name="Path 2641" d="M289.19,219.638v-.118a1.639,1.639,0,0,1,1.639-1.639h43.544a1.639,1.639,0,0,1,1.639,1.639v.118a1.639,1.639,0,0,1-1.639,1.639H290.829A1.639,1.639,0,0,1,289.19,219.638Z" transform="translate(132.137 154.423)" fill="#fff"/>
    <path id="Path_2642" data-name="Path 2642" d="M269.11,219.638v-.118a1.639,1.639,0,0,1,1.639-1.639H290.2a1.639,1.639,0,0,1,1.639,1.639v.118a1.639,1.639,0,0,1-1.639,1.639H270.749A1.639,1.639,0,0,1,269.11,219.638Z" transform="translate(125.88 154.423)" fill="#fff"/>
    <path id="Path_2643" data-name="Path 2643" d="M293.8,225.328v-.118a1.639,1.639,0,0,1,1.639-1.639h37.5a1.639,1.639,0,0,1,1.639,1.639v.118a1.639,1.639,0,0,1-1.639,1.639h-37.5A1.639,1.639,0,0,1,293.8,225.328Z" transform="translate(133.573 156.196)" fill="#fff"/>
    <path id="Path_2644" data-name="Path 2644" d="M269.11,225.328v-.118a1.639,1.639,0,0,1,1.639-1.639h25.9a1.639,1.639,0,0,1,1.639,1.639v.118a1.639,1.639,0,0,1-1.639,1.639h-25.9A1.639,1.639,0,0,1,269.11,225.328Z" transform="translate(125.88 156.196)" fill="#fff"/>
    <path id="Path_2645" data-name="Path 2645" d="M269.11,231.018V230.9a1.639,1.639,0,0,1,1.639-1.639h9.614A1.639,1.639,0,0,1,282,230.9v.118a1.639,1.639,0,0,1-1.639,1.639h-9.614A1.639,1.639,0,0,1,269.11,231.018Z" transform="translate(125.88 157.969)" fill="#fff"/>
    <path id="Path_2646" data-name="Path 2646" d="M281.53,231.018V230.9a1.639,1.639,0,0,1,1.639-1.639h53.591A1.639,1.639,0,0,1,338.4,230.9v.118a1.639,1.639,0,0,1-1.639,1.639H283.169A1.639,1.639,0,0,1,281.53,231.018Z" transform="translate(129.75 157.969)" fill="#fff"/>
    <circle id="Ellipse_190" data-name="Ellipse 190" cx="43.439" cy="43.439" r="43.439" transform="translate(115.961 360.605) rotate(-65.05)" fill="#64dbb2"/>
    <circle id="Ellipse_191" data-name="Ellipse 191" cx="10.532" cy="10.532" r="10.532" transform="translate(149.988 354.439) rotate(-19.35)" fill="#fff"/>
    <path id="Path_2647" data-name="Path 2647" d="M88.472,214.533l-.512-6.676,5.535-3.777,6.033,2.9.512,6.676L94.5,217.432Z" transform="translate(69.438 150.123)" fill="#64dbb2"/>
    <circle id="Ellipse_192" data-name="Ellipse 192" cx="10.532" cy="10.532" r="10.532" transform="translate(170.445 311.869) rotate(-19.67)" fill="#fff"/>
    <path id="Path_2648" data-name="Path 2648" d="M104.19,182.393l.367-8.486,6.387-5.587,6.046,2.9-.367,8.486-6.4,5.587Z" transform="translate(74.495 138.981)" fill="#64dbb2"/>
    <path id="Path_2649" data-name="Path 2649" d="M100.033,213.393l-8.053-3.935,5.955-13.719c.38-.879.787-1.731,1.233-2.623L106.158,180l8.053,3.869-5.745,13.522c-.446,1.049-.931,2.072-1.469,3.069Z" transform="translate(70.69 142.621)" fill="#fff"/>
    <path id="Path_2650" data-name="Path 2650" d="M123.37,214.547c1.561-.708,26.481.42,26.481.42L131.882,198.48Z" transform="translate(80.471 148.379)" fill="#64dbb2"/>
    <circle id="Ellipse_193" data-name="Ellipse 193" cx="42.692" cy="42.692" r="42.692" transform="translate(218.523 271.392) rotate(-66.61)" fill="#64dbb2"/>
    <rect id="Rectangle_707" data-name="Rectangle 707" width="2.846" height="35.859" transform="translate(273.235 212.776)" fill="#fff"/>
    <rect id="Rectangle_708" data-name="Rectangle 708" width="2.846" height="36.344" transform="translate(244.77 271.666) rotate(-124.69)" fill="#fff"/>
    <path id="Path_2651" data-name="Path 2651" d="M182.229,124.935A3.935,3.935,0,1,1,178.295,121a3.935,3.935,0,0,1,3.935,3.935Z" transform="translate(96.358 124.238)" fill="#fff"/>
    <path id="Path_2657" data-name="Path 2657" d="M330.988,359a283.116,283.116,0,0,1-81.318,34.809" transform="translate(119.823 198.393)" fill="none" stroke="#6f8bbf" stroke-linecap="round" stroke-miterlimit="10" stroke-width="1"/>
    <path id="Path_2678" data-name="Path 2678" d="M120.7,366.041a99.47,99.47,0,0,1,27.543-85.371C150.8,312.4,141.144,344.714,120.7,366.041Z" transform="translate(79.262 173.987)" fill="#a2c7eb"/>
    <path id="Path_2681" data-name="Path 2681" d="M143.278,290.16a191.045,191.045,0,0,1-23.438,74.209" transform="translate(79.371 176.944)" fill="none" stroke="#6f8bbf" stroke-linecap="round" stroke-miterlimit="10" stroke-width="1"/>
    <path id="Path_2686" data-name="Path 2686" d="M245.284,349s2.872,26.323,6.086,28.435c5.745,3.79,72.242,12.552,72.242,12.552l-2.177,17.3s-91.076,8.184-94.945,3.633c-6.715-7.869-18.52-45.984-18.52-45.984Z" transform="translate(106.83 195.277)" fill="#e06a58"/>
    <path id="Path_2687" data-name="Path 2687" d="M202.94,301.517,210.3,283.85s19.962,9.378,26.546,20.985c7.043,12.381,15.66,78.209,15.66,78.209s-35.242,8.119-41.721,4.669S202.94,301.517,202.94,301.517Z" transform="translate(105.263 174.978)" fill="#457be1"/>
    <path id="Path_2688" data-name="Path 2688" d="M177.681,235.557c-5.154-1.889-10.611-3.541-16.132-3.122s-11.162,3.384-13,8.2c-1.312,3.436-.721,7.489-2.833,10.584s-6.033,4.2-9.784,4.446-7.555-.236-11.293.249c-11.542,1.535-19.779,14.073-15.988,24.343,1.508,4.092,4.6,8,3.935,12.263-.748,4.564-5.535,7.568-7.5,11.8-2.623,5.64.512,12.473,5.666,16.316s11.8,5.246,18.362,6.256c8.958,1.312,18.2,1.967,27.058.079s17.313-6.558,21.89-13.85c2.033-3.226,3.266-6.873,5.627-9.9,4.879-6.256,13.522-8.683,20.329-13.116,7.437-4.866,12.893-14.336,8.512-21.746-4.223-7.122-15.214-8.709-19.674-15.739-1.823-2.9-2.256-6.348-3.436-9.509S185.275,238.351,177.681,235.557Z" transform="translate(74.478 158.938)" fill="#0a2240"/>
    <path id="Path_2689" data-name="Path 2689" d="M192.573,319.974c1.312,1.5,2.833,3.135,4.958,3.279s4.118-1.43,5.561-2.964a56.4,56.4,0,0,0,14.427-27.543c-1.849-1.049-3.633-2.059-5.246-3a7.961,7.961,0,0,1-3.266-3.594,6.9,6.9,0,0,1-.485-3.384,96.717,96.717,0,0,1,5.443-25.366c-16.447-3.712-31.963-8.119-40.882-15.568-1.089,4.591-2.374,13.575-5.115,22.48-2.925,9.43-7.489,18.756-15.227,22.769a163.186,163.186,0,0,1,39.833,32.894Z" transform="translate(89.622 161.886)" fill="#f9a07b"/>
    <path id="Path_2690" data-name="Path 2690" d="M204.854,282.774a6.886,6.886,0,0,0,.485,3.384c-9.732,11.8-31.478-3.62-41.039-21.838,2.741-8.906,4.027-17.89,5.115-22.48,8.906,7.45,24.435,11.8,40.882,15.568a96.612,96.612,0,0,0-5.443,25.366Z" transform="translate(93.224 161.889)" fill="#e06a58"/>
    <path id="Path_2691" data-name="Path 2691" d="M244.947,415.9c-2.151,14.244,13.221,29.576,13.6,37.183-32.645,0-100.992,1.994-135.853-2.741-1.587-8.788,15.608-28.553,15.608-48.069,0-2.623-.1-5.417-.315-8.46-.551-8.709-1.836-19.07-3.266-29.694-3.935-28.5-9.05-59.021-5.246-65.3,7.476-12.316,24.92-20.684,33.629-24.277,2.977-1.233,4.918-1.9,5.063-1.98,10.873,18.546,33,34.363,41.354,33.655,2.321-.184,9.181-2.623,13.758-25.5,1.771,1.01,3.541,1.941,5.246,2.846,8.643,4.5,16.749,8.21,19.083,13.995,6.164,15.227,12.211,53.617,10.873,67.271s-6.82,24.29-10.755,38.154c-.9,3.24-1.731,6.676-2.4,10.375C245.209,414.145,245.1,415.011,244.947,415.9Z" transform="translate(80.228 171.46)" fill="#648ddb"/>
    <path id="Path_2692" data-name="Path 2692" d="M258.548,434.764c-32.645,0-100.992,1.994-135.853-2.741-1.587-8.788,15.608-28.553,15.608-48.069,0-2.623-.1-5.417-.315-8.46-.551-8.709-1.836-19.07-3.266-29.694,6.178,6.558,15.188-20.985,19.175-12.958,21.575,43.544,38.587,54.994,68.2,54.994a113.5,113.5,0,0,0,25.628-3.174c-.9,3.24-1.731,6.676-2.4,10.375q-.236,1.312-.433,2.623C242.8,411.812,258.22,427.144,258.548,434.764Z" transform="translate(80.228 189.782)" fill="#4e80e1"/>
    <path id="Path_2693" data-name="Path 2693" d="M218.964,283.614c-1.4,10.191-5.561,23.923-17.654,27.543-16.342,4.892-39.99-25.641-47.82-36.567,2.977-1.233,4.918-1.9,5.063-1.981,10.873,18.546,33,34.363,41.354,33.655,2.322-.184,9.181-2.623,13.758-25.5C215.436,281.7,217.207,282.63,218.964,283.614Z" transform="translate(89.855 171.476)" fill="#7f9dd6"/>
    <path id="Path_2694" data-name="Path 2694" d="M208.558,398.585l-.118,11.371,203.295,1.207.42-12.893Z" transform="translate(106.977 210.629)" fill="#325f73"/>
    <path id="Path_2695" data-name="Path 2695" d="M484.52,322.481,480,317.891l-148.077-.971L257.63,424.351l3.882,3.122Z" transform="translate(122.303 185.282)" fill="#325f73"/>
    <path id="Path_2696" data-name="Path 2696" d="M333.855,319.95,260.59,426.529l139.945.7L483.6,321.537Z" transform="translate(123.225 186.226)" fill="#0b2d50"/>
    <ellipse id="Ellipse_194" data-name="Ellipse 194" cx="16.29" cy="8.145" rx="16.29" ry="8.145" transform="translate(476.151 557.918)" fill="#3c738c"/>
    <ellipse id="Ellipse_195" data-name="Ellipse 195" cx="22.808" cy="15.044" rx="22.808" ry="15.044" transform="translate(314.386 423.412) rotate(-79.44)" fill="#64dbb2"/>
    <path id="Path_2697" data-name="Path 2697" d="M241.251,224.99c-1.521,10.781-6.335,22.664-13.352,35.793-2.466-10.755-4.04-23.858-6.217-36.96s-5.036-26.232-9.929-36.987a64.267,64.267,0,0,0-3.594-6.742,23.936,23.936,0,0,1,8.63.774,28.854,28.854,0,0,1,11.8,6.44A41.394,41.394,0,0,1,240.1,206.1,42.18,42.18,0,0,1,241.251,224.99Z" transform="translate(106.889 142.618)" fill="#0b2d50"/>
    <path id="Path_2698" data-name="Path 2698" d="M249.117,237.4c-.079,2.125-.223,4.289-.42,6.44-2.99,34.888-17.641,58.824-40.056,58.824-31.648,0-52.161-35.491-52.161-70.261,0-34.3,20.985-59.126,45.6-56.254,14.178,1.626,24.54,6.335,31.9,13.234a43.479,43.479,0,0,1,10.781,16.447,71.913,71.913,0,0,1,4.341,23.687v.079C249.235,232.145,249.209,234.742,249.117,237.4Z" transform="translate(90.787 141.352)" fill="#f9a07b"/>
    <path id="Path_2699" data-name="Path 2699" d="M245.674,231.378a35.057,35.057,0,0,0-4.263-9.614,99.588,99.588,0,0,1-62,9.955l-11.883,9.929c.079-15.87.3-26.612,6.492-34.3,5.81-7.214,15.5-9.929,24.684-11.109a114.174,114.174,0,0,1,31.15.2,31.478,31.478,0,0,1,11.476,3.4,71.914,71.914,0,0,1,4.341,23.687v.079C245.792,226.118,245.766,228.715,245.674,231.378Z" transform="translate(94.23 147.378)" fill="#e06a58"/>
    <path id="Path_2700" data-name="Path 2700" d="M255.93,217.291a58.473,58.473,0,0,1-15.9,9.181c-17.392,7.017-39.99,9.338-57.6,8.486-8.656,19.018-12.158,25.838-14.427,42.43-8.46-7.935-15.345-22.467-17.392-33.891a77.514,77.514,0,0,1,1.312-34.521A51.624,51.624,0,0,1,178.258,177.3a49.5,49.5,0,0,1,5.666-2.623c11.161-4.315,23.74-3.935,35.19-.42a41.971,41.971,0,0,1,15.923,9.26c8.932,8.066,14.427,18.992,18.021,27.176C254.277,213.2,255.156,215.428,255.93,217.291Z" transform="translate(88.538 139.982)" fill="#0b2d50"/>
    <path id="Path_2701" data-name="Path 2701" d="M252.686,227.62a53.392,53.392,0,0,0-3.318-11.083,38.19,38.19,0,0,0-3.122-5.863A32.147,32.147,0,0,0,229.5,197.06a61.646,61.646,0,0,0-6.3-7.542,48.528,48.528,0,0,0-27.11-14.3,51.505,51.505,0,0,0-24.631,2.1,49.5,49.5,0,0,1,5.666-2.623c11.161-4.315,23.74-3.935,35.19-.42a41.971,41.971,0,0,1,15.923,9.26,28.855,28.855,0,0,1,11.8,6.44,41.393,41.393,0,0,1,11.5,18.795A42.363,42.363,0,0,1,252.686,227.62Z" transform="translate(95.454 139.988)" fill="#225570"/>
    <path id="Path_2702" data-name="Path 2702" d="M182.24,231.427c5.85-3.345,11.922-4.853,20.434-1.744" transform="translate(98.813 157.572)" fill="none" stroke="#0b2d50" stroke-linecap="round" stroke-miterlimit="10" stroke-width="2"/>
    <path id="Path_2703" data-name="Path 2703" d="M212.78,231.13c5.01-3.738,12.434-4.118,16.3,0" transform="translate(108.329 157.633)" fill="none" stroke="#0b2d50" stroke-linecap="round" stroke-miterlimit="10" stroke-width="2"/>
    <path id="Path_2704" data-name="Path 2704" d="M208.413,245c.512,2.623.236,8.512-1.023,11.148" transform="translate(106.649 162.873)" fill="none" stroke="#cc454e" stroke-linecap="round" stroke-miterlimit="10" stroke-width="2"/>
    <ellipse id="Ellipse_196" data-name="Ellipse 196" cx="2.413" cy="3.804" rx="2.413" ry="3.804" transform="translate(292.883 402.01)" fill="#262d40"/>
    <ellipse id="Ellipse_197" data-name="Ellipse 197" cx="2.413" cy="3.804" rx="2.413" ry="3.804" transform="translate(324.428 400.24)" fill="#262d40"/>
    <path id="Path_2705" data-name="Path 2705" d="M210.523,258.648a18.533,18.533,0,0,1-1.312,2.164,14.978,14.978,0,0,1-7.122,5.548h0a9.3,9.3,0,0,1-4.577.3c-4.932-.879-6.23-5.43-6.466-8.932a18.73,18.73,0,0,1,0-1.889,17.872,17.872,0,0,1,.184-2.361C198.968,257.808,210.523,258.648,210.523,258.648Z" transform="translate(101.549 165.515)" fill="#cc454e"/>
    <path id="Path_2706" data-name="Path 2706" d="M210.529,258.648a18.533,18.533,0,0,1-1.312,2.164c-4.013,0-12.224-2.112-18.218-4.971a17.877,17.877,0,0,1,.184-2.361C198.974,257.808,210.529,258.648,210.529,258.648Z" transform="translate(101.543 165.515)" fill="#fff"/>
    <path id="Path_2707" data-name="Path 2707" d="M202.023,265.34a9.3,9.3,0,0,1-4.577.3c-4.932-.879-6.23-5.43-6.466-8.932a13.43,13.43,0,0,1,11.043,8.63Z" transform="translate(101.536 166.522)" fill="#e8729b"/>
    <path id="Path_2708" data-name="Path 2708" d="M164.871,241.691a90.669,90.669,0,0,1,6.558-32.606c8.538-20.4,25.943-29.117,42.823-29.707A46,46,0,0,1,247.33,192.31s-6.624-11.686-19.674-15.044c-8.578-2.2-21.523-2.623-31.911,1.666-10.7,4.341-24.041,16.395-28.855,29.13s-7.161,32.566-7.161,32.566Z" transform="translate(91.8 141.263)" fill="#55bb98"/>
    <ellipse id="Ellipse_198" data-name="Ellipse 198" cx="15.778" cy="23.909" rx="15.778" ry="23.909" transform="translate(233.693 378.729) rotate(-5.768)" fill="#64dbb2"/>
    <ellipse id="Ellipse_199" data-name="Ellipse 199" cx="10.296" cy="18.113" rx="10.296" ry="18.113" transform="matrix(0.989, -0.149, 0.149, 0.989, 236.78, 387.014)" fill="#55bb98"/>
    <ellipse id="Ellipse_200" data-name="Ellipse 200" cx="8.447" cy="5.259" rx="8.447" ry="5.259" transform="translate(297.71 433.987)" fill="#55bb98"/>
    <path id="Path_2709" data-name="Path 2709" d="M169,255.51s12.408,15.949,33.983,17.588" transform="translate(94.688 166.148)" fill="none" stroke="#55bb98" stroke-linecap="round" stroke-miterlimit="10" stroke-width="2"/>
    <path id="Path_2710" data-name="Path 2710" d="M235.186,387.963l-.813,20.985S158.537,431.665,146,424.478c-6.112-3.515-11.8-22.848-16.08-41.721-4.459-19.831-7.319-39.138-7.319-39.138l44.463-8.709s0,27.11,1.535,42.784c.538,5.837,1.312,10.086,2.348,10.781C174.866,391.059,235.186,387.963,235.186,387.963Z" transform="translate(80.231 190.887)" fill="#f9a07b"/>
    <path id="Path_2711" data-name="Path 2711" d="M168.6,377.671c-8.079,2.623-23.608,6.676-38.678,5.076-4.459-19.831-7.319-39.138-7.319-39.138l44.463-8.709S167.089,362,168.6,377.671Z" transform="translate(80.231 190.884)" fill="#e06a58"/>
    <path id="Path_2712" data-name="Path 2712" d="M207.712,377.985c11.28-2.413,30.376-8.21,38.3-10.2,5.627-1.417,20.277,6.164,24.146,13.313,1.692,3.122,3.292,20.8-2.623,18.979-2.938-.918-2.453-8.5-3.371-11.594-.748-2.518-3.135-4.958-6.768-7.056,2.426,6.046,2.335,11.319,2.072,17.851a9.26,9.26,0,0,1-.839,4.2,3.017,3.017,0,0,1-3.541,1.587c-1.312-.551-1.8-2.217-2.1-3.672a119.356,119.356,0,0,1-2.505-15.739c.1,5.6,0,11.214-.367,16.8-.262,4.276-2.387,6.623-5,5.876-1.167-.328-1.639-1.4-2.138-2.82-.787,2.741-2.754,5.771-5.246,4.617-1.548-.7-2.505-6.282-2.23-12.027a33.655,33.655,0,0,1-16.736,4.6c-5.692.262-11.516-.8-14.939-4.669a100.624,100.624,0,0,1,3.882-20.041Z" transform="translate(105.54 201.076)" fill="#f9a07b"/>
    <path id="Path_2713" data-name="Path 2713" d="M234.087,399.032a40.1,40.1,0,0,0-1.167-13.522" transform="translate(114.604 206.653)" fill="none" stroke="#cc454e" stroke-linecap="round" stroke-miterlimit="10" stroke-width="1"/>
    <path id="Path_2714" data-name="Path 2714" d="M163.666,307.947c-3.227-9.089-15.044-27.687-15.044-27.687s-18.034,7.5-24.435,20.238c-10.834,21.562-5.325,83.469-5.325,83.469,14.6,6.112,43.9,6.2,56.4,4.446C175.234,388.413,170.132,326.113,163.666,307.947Z" transform="translate(78.63 173.86)" fill="#648ddb"/>
    <path id="Path_2715" data-name="Path 2715" d="M154.44,304.27a401.023,401.023,0,0,1,8.394,67.009" transform="translate(90.151 181.341)" fill="none" stroke="#457be1" stroke-linecap="round" stroke-miterlimit="10" stroke-width="1"/>
    <rect id="Rectangle_709" data-name="Rectangle 709" width="517.129" height="12.972" transform="translate(113.461 618.054)" fill="#0b2d50"/>
  </g>
</svg>
