<svg xmlns="http://www.w3.org/2000/svg" width="450.556" height="409.099" viewBox="0 0 450.556 409.099">
  <g id="ilustrasi" transform="translate(-780.964 -215.686)">
    <g id="freepik--Graphics--inject-11" transform="translate(759.504 177.305)">
      <rect id="Rectangle_644" data-name="Rectangle 644" width="57.132" height="36.534" rx="3.52" transform="translate(89.89 125.11) rotate(16.809)" fill="none" stroke="#263238" stroke-miterlimit="10" stroke-width="1.003"/>
      <line id="Line_1" data-name="Line 1" x2="54.51" y2="16.52" transform="translate(87.18 132.84)" fill="none" stroke="#263238" stroke-miterlimit="10" stroke-width="1"/>
      <line id="Line_2" data-name="Line 2" x2="54.52" y2="16.52" transform="translate(85.52 138.31)" fill="none" stroke="#263238" stroke-miterlimit="10" stroke-width="1"/>
      <path id="Path_2429" data-name="Path 2429" d="M123.45,165.06a3.56,3.56,0,0,0,.31,2.78,3.6,3.6,0,0,1-2.63.22,3.55,3.55,0,1,1,4.12-5.14,3.6,3.6,0,0,0-1.8,2.14Z" fill="none" stroke="#263238" stroke-miterlimit="10" stroke-width="1"/>
      <path id="Path_2430" data-name="Path 2430" d="M130.24,167.12a3.55,3.55,0,1,1-2.36-4.43,3.55,3.55,0,0,1,2.36,4.43Z" fill="none" stroke="#263238" stroke-miterlimit="10" stroke-width="1"/>
      <rect id="Rectangle_645" data-name="Rectangle 645" width="48.45" height="30.98" rx="3.51" transform="translate(424.129 195.731) rotate(16.86)" fill="none" stroke="#263238" stroke-miterlimit="10" stroke-width="1"/>
      <line id="Line_3" data-name="Line 3" x2="46.37" y2="14.05" transform="translate(422.04 202.62)" fill="none" stroke="#263238" stroke-miterlimit="10" stroke-width="1"/>
      <line id="Line_4" data-name="Line 4" x2="46.36" y2="14.05" transform="translate(420.63 207.28)" fill="none" stroke="#263238" stroke-miterlimit="10" stroke-width="1"/>
      <path id="Path_2431" data-name="Path 2431" d="M452.89,230a3,3,0,0,0,.26,2.36,3.015,3.015,0,1,1,1.27-4.18,3,3,0,0,0-1.53,1.82Z" fill="none" stroke="#263238" stroke-miterlimit="10" stroke-width="1"/>
      <path id="Path_2432" data-name="Path 2432" d="M458.66,231.78a3,3,0,1,1-.213-2.3,3,3,0,0,1,.213,2.3Z" fill="none" stroke="#263238" stroke-miterlimit="10" stroke-width="1"/>
      <rect id="Rectangle_646" data-name="Rectangle 646" width="63.66" height="33.12" transform="matrix(0.909, -0.416, 0.416, 0.909, 345.798, 125.715)" fill="none" stroke="#263238" stroke-miterlimit="10" stroke-width="1"/>
      <path id="Path_2433" data-name="Path 2433" d="M412.49,125l-8.76-19.13a3.4,3.4,0,0,1-4.5-1.67l-46.79,21.42a3.4,3.4,0,0,1-1.67,4.5l8.76,19.13a3.39,3.39,0,0,1,4.5,1.68l46.78-21.43a3.39,3.39,0,0,1,1.68-4.5Z" fill="none" stroke="#263238" stroke-miterlimit="10" stroke-width="1"/>
      <circle id="Ellipse_180" data-name="Ellipse 180" cx="8.7" cy="8.7" r="8.7" transform="translate(369.431 125.928) rotate(-37.53)" fill="none" stroke="#263238" stroke-miterlimit="10" stroke-width="1"/>
      <path id="Path_2434" data-name="Path 2434" d="M384,131.74l.65,1.42-.62.28-.64-1.4a5.11,5.11,0,0,1-3.47.22v-.87a4.59,4.59,0,0,0,3.08-.15L381.53,128c-1.52.29-3.09.51-3.84-1.13-.54-1.18-.16-2.6,1.66-3.61l-.65-1.43.62-.28L380,123a5.27,5.27,0,0,1,2.86-.38v.87a5,5,0,0,0-2.53.29l1.5,3.28c1.55-.31,3.2-.59,4,1.07C386.33,129.28,385.9,130.73,384,131.74Zm-2.86-4.61L379.72,124c-1.23.69-1.5,1.61-1.14,2.39.42.98,1.42.94,2.55.74Zm3.77,1.41c-.44-1-1.5-.9-2.68-.67l1.41,3.09c1.36-.72,1.62-1.63,1.26-2.42Z" fill="#263238"/>
      <rect id="Rectangle_647" data-name="Rectangle 647" width="44.69" height="23.244" transform="translate(39.734 240.398) rotate(-5.143)" fill="none" stroke="#263238" stroke-miterlimit="10" stroke-width="1.004"/>
      <path id="Path_2435" data-name="Path 2435" d="M82.75,254.86l-1.26-14.65a2.38,2.38,0,0,1-2.57-2.16l-35.84,3.1a2.39,2.39,0,0,1-2.16,2.57l1.26,14.65a2.37,2.37,0,0,1,2.57,2.16l35.84-3.1a2.39,2.39,0,0,1,2.16-2.57Z" fill="none" stroke="#263238" stroke-miterlimit="10" stroke-width="1"/>
      <path id="Path_2436" data-name="Path 2436" d="M67.9,248.77a6.08,6.08,0,1,1-2.146-4.137A6.09,6.09,0,0,1,67.9,248.77Z" fill="none" stroke="#263238" stroke-miterlimit="10" stroke-width="1"/>
      <path id="Path_2437" data-name="Path 2437" d="M62.4,252.63l.09,1.09h-.47l-.1-1.08a3.57,3.57,0,0,1-2.33-.67l.22-.56a3.26,3.26,0,0,0,2.06.62l-.21-2.49c-1.07-.16-2.16-.39-2.26-1.64-.08-.91.5-1.76,1.94-2l-.09-1.09h.47l.09,1.07a3.76,3.76,0,0,1,2,.43l-.19.57a3.56,3.56,0,0,0-1.73-.4l.21,2.51c1.09.16,2.25.37,2.36,1.64C64.52,251.56,63.89,252.41,62.4,252.63Zm-.8-3.71-.21-2.37c-1,.17-1.36.71-1.31,1.31s.72.93,1.52,1.06Zm2.15,1.82c-.07-.75-.78-1-1.61-1.08l.2,2.37c1.04-.17,1.46-.69,1.41-1.29Z" fill="#263238"/>
      <circle id="Ellipse_181" data-name="Ellipse 181" cx="8.7" cy="8.7" r="8.7" transform="translate(435.63 95.31)" fill="none" stroke="#263238" stroke-miterlimit="10" stroke-width="1"/>
      <path id="Path_2438" data-name="Path 2438" d="M444.72,108.84v1.56H444v-1.55a5.18,5.18,0,0,1-3.25-1.23l.39-.78A4.69,4.69,0,0,0,444,108v-3.57c-1.5-.37-3-.83-3-2.63,0-1.3.94-2.43,3-2.59V97.62h.68v1.55a5.27,5.27,0,0,1,2.76.85l-.34.8a5,5,0,0,0-2.42-.79v3.6c1.53.37,3.15.8,3.15,2.63C447.87,107.57,446.88,108.72,444.72,108.84Zm-.68-5.39v-3.39c-1.4.12-2,.84-2,1.7-.04,1.03.88,1.41,1.96,1.69Zm2.84,2.86c0-1.07-1-1.44-2.16-1.73V108C446.21,107.87,446.88,107.18,446.88,106.31Z" fill="#263238"/>
      <circle id="Ellipse_182" data-name="Ellipse 182" cx="8.7" cy="8.7" r="8.7" transform="translate(374.569 205.461) rotate(-13.26)" fill="none" stroke="#263238" stroke-miterlimit="10" stroke-width="1"/>
      <path id="Path_2439" data-name="Path 2439" d="M382.84,216.24l-.81,1.33-.58-.36.81-1.32a5.09,5.09,0,0,1-2.12-2.75l.74-.46a4.66,4.66,0,0,0,1.83,2.47l1.88-3.05c-1.09-1.09-2.14-2.28-1.2-3.81.68-1.11,2.07-1.58,3.93-.63l.82-1.34.58.36-.81,1.32a5.42,5.42,0,0,1,1.91,2.16l-.71.51a5.1,5.1,0,0,0-1.65-1.94l-1.89,3.07c1.12,1.12,2.27,2.33,1.31,3.89C386.19,216.81,384.75,217.26,382.84,216.24Zm2.25-5,1.77-2.89c-1.25-.63-2.16-.35-2.61.38-.54.93.03,1.74.84,2.56Zm.92,3.92c.56-.91-.09-1.74-.94-2.6l-1.78,2.9c1.33.74,2.26.54,2.71-.25Z" fill="#263238"/>
      <path id="Path_2440" data-name="Path 2440" d="M260.18,44a8.69,8.69,0,1,1-4.873-4.542A8.7,8.7,0,0,1,260.18,44Z" fill="none" stroke="#263238" stroke-miterlimit="10" stroke-width="1"/>
      <path id="Path_2441" data-name="Path 2441" d="M254.63,51.83l.65,1.42-.62.29L254,52.13a5.11,5.11,0,0,1-3.47.22v-.87a4.62,4.62,0,0,0,3.07-.14l-1.48-3.26c-1.52.29-3.09.5-3.84-1.13-.54-1.19-.16-2.6,1.67-3.61l-.65-1.43.61-.28.65,1.41a5.27,5.27,0,0,1,2.86-.38v.87a5.05,5.05,0,0,0-2.53.29l1.5,3.28c1.55-.31,3.2-.58,4,1.07C257,49.37,256.54,50.82,254.63,51.83Zm-2.86-4.61-1.41-3.09c-1.23.69-1.5,1.61-1.14,2.38C249.65,47.45,250.64,47.42,251.77,47.22Zm3.77,1.41c-.45-1-1.5-.89-2.68-.67l1.41,3.09c1.31-.72,1.63-1.62,1.27-2.42Z" fill="#263238"/>
      <path id="Path_2442" data-name="Path 2442" d="M230.88,396.33a13.07,13.07,0,1,1-17.32-6.46,13.07,13.07,0,0,1,17.32,6.46Z" fill="none" stroke="#263238" stroke-miterlimit="10" stroke-width="1"/>
      <path id="Path_2443" data-name="Path 2443" d="M222.53,408.11l1,2.14-.93.42-1-2.12a7.66,7.66,0,0,1-5.21.34l.06-1.3a6.93,6.93,0,0,0,4.61-.23l-2.23-4.88c-2.27.43-4.64.75-5.76-1.7-.82-1.78-.24-3.91,2.5-5.43l-1-2.13.92-.43,1,2.12a8,8,0,0,1,4.3-.57v1.3a7.54,7.54,0,0,0-3.79.44l2.24,4.92c2.33-.46,4.81-.87,5.95,1.61C226.05,404.42,225.41,406.6,222.53,408.11Zm-4.28-6.93-2.13-4.64c-1.83,1-2.24,2.41-1.7,3.59C215.06,401.54,216.54,401.49,218.25,401.18Zm5.66,2.13c-.67-1.47-2.26-1.35-4-1l2.12,4.64C224,405.86,224.45,404.5,223.91,403.31Z" fill="#263238"/>
      <path id="Path_2444" data-name="Path 2444" d="M43.66,193.23a13.07,13.07,0,1,1,1.19-18.45A13.07,13.07,0,0,1,43.66,193.23Z" fill="none" stroke="#263238" stroke-miterlimit="10" stroke-width="1"/>
      <path id="Path_2445" data-name="Path 2445" d="M30,188.63l-1.76,1.55-.68-.77,1.75-1.53a7.75,7.75,0,0,1-1.83-4.9l1.27-.32A7,7,0,0,0,30.26,187l4-3.54c-1.07-2.05-2.06-4.23,0-6,1.48-1.29,3.68-1.35,5.92.83L42,176.75l.67.76-1.75,1.54A8,8,0,0,1,42.66,183l-1.24.41a7.67,7.67,0,0,0-1.51-3.51l-4.07,3.57c1.11,2.09,2.22,4.35.17,6.16C34.52,190.93,32.25,191,30,188.63Zm5.4-6.1,3.83-3.37c-1.52-1.46-3-1.45-3.92-.6-1.2,1.02-.72,2.44.06,3.97Zm-.41,6c1.22-1.06.65-2.55-.19-4.15l-3.83,3.37c1.57,1.61,3.03,1.67,4.03.81Z" fill="#263238"/>
      <circle id="Ellipse_183" data-name="Ellipse 183" cx="6.31" cy="6.31" r="6.31" transform="matrix(0.04, -1, 1, 0.04, 90.62, 310.514)" fill="none" stroke="#263238" stroke-miterlimit="10" stroke-width="1"/>
      <path id="Path_2446" data-name="Path 2446" d="M99,305.68l.72.87-.37.31-.72-.86a3.72,3.72,0,0,1-2.39.82l-.14-.62a3.37,3.37,0,0,0,2.12-.68l-1.66-2c-1,.49-2.06.94-2.9-.06-.6-.72-.6-1.79.48-2.85l-.73-.87.38-.31.72.86a3.87,3.87,0,0,1,1.93-.81l.18.6a3.789,3.789,0,0,0-1.71.69l1.67,2c1-.51,2.13-1,3,0C100.19,303.51,100.17,304.61,99,305.68ZM96.14,303l-1.58-1.89c-.72.72-.73,1.41-.34,1.89S95.39,303.35,96.14,303Zm2.91.27c-.5-.59-1.22-.34-2,.05l1.58,1.89c.77-.76.82-1.46.42-1.95Z" fill="#263238"/>
      <path id="Path_2447" data-name="Path 2447" d="M297.59,429.17a6.31,6.31,0,1,1-8.89-.81,6.31,6.31,0,0,1,8.89.81Z" fill="none" stroke="#263238" stroke-miterlimit="10" stroke-width="1"/>
      <path id="Path_2448" data-name="Path 2448" d="M295.19,435.72l.73.87-.38.31-.72-.86a3.69,3.69,0,0,1-2.38.82l-.14-.62a3.31,3.31,0,0,0,2.12-.68l-1.66-2c-1,.49-2.07.94-2.9-.06-.61-.72-.61-1.79.47-2.85l-.72-.87.38-.31.72.86a3.79,3.79,0,0,1,1.93-.81l.18.6a3.83,3.83,0,0,0-1.72.69l1.68,2c1-.51,2.13-1,3,0C296.36,433.55,296.34,434.65,295.19,435.72ZM292.32,433l-1.58-1.89c-.73.72-.74,1.41-.34,1.89S291.56,433.39,292.32,433Zm2.9.28c-.5-.6-1.22-.35-2,0l1.58,1.89c.78-.68.83-1.38.42-1.86Z" fill="#263238"/>
      <circle id="Ellipse_184" data-name="Ellipse 184" cx="6.31" cy="6.31" r="6.31" transform="translate(111.744 74.815) rotate(-84.76)" fill="none" stroke="#263238" stroke-miterlimit="10" stroke-width="1"/>
      <path id="Path_2449" data-name="Path 2449" d="M121.07,71.62l.72.87-.38.31-.72-.86a3.67,3.67,0,0,1-2.38.82l-.14-.62a3.37,3.37,0,0,0,2.12-.68l-1.66-2c-1,.49-2.07.94-2.9-.06-.6-.72-.61-1.79.48-2.85l-.73-.87.38-.31.72.86a3.83,3.83,0,0,1,1.93-.81l.18.6a3.79,3.79,0,0,0-1.71.69l1.67,2c1-.51,2.13-1,3,0C122.24,69.45,122.21,70.55,121.07,71.62Zm-2.88-2.69L116.61,67c-.72.72-.74,1.41-.34,1.89S117.43,69.29,118.19,68.93Zm2.91.27c-.5-.59-1.23-.34-2,0l1.58,1.89c.77-.7.82-1.4.42-1.89Z" fill="#263238"/>
    </g>
    <path id="Path_2450" data-name="Path 2450" d="M260.81,327.81s-7.71,39.13-55,48c0,0-12.35,9.85-16.46,15.68s-26,15.74-48.3,46.66-55.5-67.27-55.5-67.27l73.38-95.3Z" transform="translate(759.504 177.305)" fill="rgba(0,0,0,0.7)" opacity="0.2"/>
    <path id="Path_2451" data-name="Path 2451" d="M302.84,144.08s25.5-12.47,31.11-10.32,11,15.05-10.45,27.4-15.05,35.36-15.05,35.36h15.3s9.18,3.74,12.75,8.55,6.12,21.21,8.16,26.77,1,11.13-4.59,12.94c0,0-3.57,15.56-2.55,22.46s.51,11.34-6.12,12.18a11.57,11.57,0,0,1-12.75-12.18l-5.1,18.48,3.57,7.1a46.16,46.16,0,0,1,13.77,8.34c7.14,6.12,14.28,7.79,12.24,14.61s-6.12,14.17-27.54,5.65-39.27-42-39.27-42L263.45,162.68Z" transform="translate(759.504 177.305)" fill="#fff"/>
    <path id="Path_2452" data-name="Path 2452" d="M329.68,211.14c-11.56,15.76,1.23,33.91,1.23,33.91s-8,4.46-8.23,15.84c-.09,4.73,1.1,11.34,2.52,17.46a11.46,11.46,0,0,1-6.54-11.11l-5.11,18.48,3.57,7.09a43.771,43.771,0,0,1,10.52,5.79c-3.17,7.28-4.14,16.28-3.86,25.56a68.227,68.227,0,0,1-8.19-2.74c-21.42-8.53-39.27-42-39.27-42L263.45,162.67l39.39-18.59s13.93-6.81,23.47-9.5c-.74,8.92,1,18.15,2.26,23.29a53.8,53.8,0,0,1-5.07,3.29c-21.42,12.35-15.05,35.36-15.05,35.36h15.31s8.72,3.56,12.46,8.19a25,25,0,0,0-6.54,6.43Z" transform="translate(759.504 177.305)" fill="#64dbb2" opacity="0.4"/>
    <path id="Path_2453" data-name="Path 2453" d="M263,309s-27.74,54.39-77.74,66.73c0,0-1.91,10.76-10.37,15.38-4.52,2.46-22.76,29.79-38.77,54.74l-88.68-54.4c5.46-5.4,11.68-11.62,18-18.11,18.5-18.86,38.24-40,44.28-50.46,5.4-9.3,12.23-25.44,18.18-40.61,7.62-19.4,13.82-37.22,13.82-37.22l29.56-32.86,46.47-51.67,2,6.61Z" transform="translate(759.504 177.305)" fill="#fff"/>
    <path id="Path_2454" data-name="Path 2454" d="M217.79,160.52,263,309s-27.74,54.39-77.74,66.73c0,0-1.91,10.76-10.37,15.38-4.06,2.21-19.17,24.46-33.79,47,5.42-18.6,21.11-48.25,21.11-48.25-10.07-11.93-7.13-24.5-3.1-20.92s14.16,13.64,14.8,14.27c-4.45-5.24-5.48-13.45-5.48-13.45s12.48,8.3,13.49-5-7.48-45.8-7.48-45.8L152.15,233.5Z" transform="translate(759.504 177.305)" fill="#64dbb2" opacity="0.4"/>
    <path id="Path_2455" data-name="Path 2455" d="M263.45,162.68l39.39-18.6s25.5-12.47,31.11-10.32,11,15.05-10.45,27.4-15.05,35.36-15.05,35.36h15.3s9.18,3.74,12.75,8.55,6.12,21.21,8.16,26.77,1,11.13-4.59,12.94c0,0-3.57,15.56-2.55,22.46s.51,11.34-6.12,12.18a11.57,11.57,0,0,1-12.75-12.18l-5.1,18.48,3.57,7.1a46.16,46.16,0,0,1,13.77,8.34c7.14,6.12,14.28,7.79,12.24,14.61s-6.12,14.17-27.54,5.65-39.27-42-39.27-42" transform="translate(759.504 177.305)" fill="none" stroke="#263238" stroke-linecap="round" stroke-linejoin="round" stroke-width="1"/>
    <path id="Path_2456" data-name="Path 2456" d="M340.07,244.78c-7.65,2.07-16.57.54-19.89-13s3.32-28,7.65-29.33" transform="translate(759.504 177.305)" fill="none" stroke="#263238" stroke-linecap="round" stroke-linejoin="round" stroke-width="1"/>
    <path id="Path_2457" data-name="Path 2457" d="M318.65,267.24s-.51-17.41,5.87-21.71" transform="translate(759.504 177.305)" fill="none" stroke="#263238" stroke-linecap="round" stroke-linejoin="round" stroke-width="1"/>
    <path id="Path_2458" data-name="Path 2458" d="M132.62,353.71s-18.69-2.33-22.86-10.69c-3.45-6.92-22.15,19-44.28,30.32,18.5-18.86,38.24-40,44.28-50.46,5.4-9.3,12.23-25.44,18.18-40.61h0c-.3,12.58-7,31.84-5.09,41.87a8.05,8.05,0,0,0-5.75,9.74C118.53,341.85,132.62,353.71,132.62,353.71Z" transform="translate(759.504 177.305)" fill="#64dbb2" opacity="0.4"/>
    <path id="Path_2459" data-name="Path 2459" d="M263,309s-27.74,54.39-77.75,66.73c0,0-1.9,10.76-10.36,15.38-4.52,2.46-22.75,29.79-38.78,54.74" transform="translate(759.504 177.305)" fill="none" stroke="#263238" stroke-linecap="round" stroke-linejoin="round" stroke-width="1"/>
    <path id="Path_2460" data-name="Path 2460" d="M47.44,391.45c21.36-21.11,54.19-54.58,62.32-68.57,12.3-21.17,32-77.84,32-77.84l76-84.52" transform="translate(759.504 177.305)" fill="none" stroke="#263238" stroke-linecap="round" stroke-linejoin="round" stroke-width="1"/>
    <path id="Path_2461" data-name="Path 2461" d="M174.39,225.07s11.68,10.46,15,20" transform="translate(759.504 177.305)" fill="none" stroke="#263238" stroke-linecap="round" stroke-linejoin="round" stroke-width="1"/>
    <rect id="Rectangle_648" data-name="Rectangle 648" width="139.13" height="280.99" rx="6.73" transform="translate(939.363 250.025)" fill="#263238"/>
    <path id="Path_2462" data-name="Path 2462" d="M277,80.37l-2.66,4.87A3.32,3.32,0,0,1,271.43,87h-44a3.35,3.35,0,0,1-2.92-1.74l-2.65-4.87a3.32,3.32,0,0,0-2.92-1.74H188.19A3.33,3.33,0,0,0,184.87,82V345a3.33,3.33,0,0,0,3.32,3.33H310.65A3.33,3.33,0,0,0,314,345V82a3.33,3.33,0,0,0-3.33-3.33H279.93a3.32,3.32,0,0,0-2.93,1.7Z" transform="translate(759.504 177.305)" fill="#64dbb2" stroke="#263238" stroke-linecap="round" stroke-linejoin="round" stroke-width="1"/>
    <circle id="Ellipse_185" data-name="Ellipse 185" cx="1.79" cy="1.79" r="1.79" transform="translate(997.594 256.455)" fill="none" stroke="#fff" stroke-miterlimit="10" stroke-width="1"/>
    <path id="Path_2463" data-name="Path 2463" d="M260.75,80.94a1.11,1.11,0,1,1-.322-.791A1.11,1.11,0,0,1,260.75,80.94Z" transform="translate(759.504 177.305)" fill="none" stroke="#fff" stroke-miterlimit="10" stroke-width="1"/>
    <path id="Path_2464" data-name="Path 2464" d="M255.77,80.24H244.89a.69.69,0,0,0-.69.7h0a.69.69,0,0,0,.69.69h10.88a.69.69,0,0,0,.69-.69h0a.69.69,0,0,0-.69-.7Z" transform="translate(759.504 177.305)" fill="#fff"/>
    <rect id="Rectangle_649" data-name="Rectangle 649" width="11.73" height="4.98" transform="translate(955.414 262.625)" fill="none" stroke="#263238" stroke-linecap="round" stroke-linejoin="round" stroke-width="1"/>
    <rect id="Rectangle_650" data-name="Rectangle 650" width="1.82" height="3.31" transform="translate(967.135 263.465)" fill="none" stroke="#263238" stroke-linecap="round" stroke-linejoin="round" stroke-width="1"/>
    <rect id="Rectangle_651" data-name="Rectangle 651" width="2.08" height="1.81" transform="translate(1048.184 265.805)" fill="none" stroke="#263238" stroke-linecap="round" stroke-linejoin="round" stroke-width="1"/>
    <rect id="Rectangle_652" data-name="Rectangle 652" width="2.08" height="3.63" transform="translate(1052.244 263.984)" fill="none" stroke="#263238" stroke-linecap="round" stroke-linejoin="round" stroke-width="1"/>
    <rect id="Rectangle_653" data-name="Rectangle 653" width="2.08" height="5.44" transform="translate(1056.305 262.164)" fill="none" stroke="#263238" stroke-linecap="round" stroke-linejoin="round" stroke-width="1"/>
    <rect id="Rectangle_654" data-name="Rectangle 654" width="2.08" height="7.26" transform="translate(1060.354 260.344)" fill="none" stroke="#263238" stroke-linecap="round" stroke-linejoin="round" stroke-width="1"/>
    <rect id="Rectangle_655" data-name="Rectangle 655" width="127.44" height="121.55" transform="translate(945.203 314.064)" fill="#fff" opacity="0.5"/>
    <path id="Path_2567" data-name="Path 2567" d="M270.15,323.78H228.69a9.71,9.71,0,0,1-9.7-9.7h0a9.71,9.71,0,0,1,9.7-9.71h41.46a9.7,9.7,0,0,1,9.7,9.71h0A9.7,9.7,0,0,1,270.15,323.78Z" transform="translate(759.504 177.305)" fill="#263238"/>
    <path id="Path_2575" data-name="Path 2575" d="M186.69,293.24c1.5,23.05-9.18,48.72-9.18,48.72l-57.69-16.24-10.06-2.84c10-13.89,14.76-41.25,12.15-63.39-.2-1.67-.32-3.24-.41-4.74-1-18.26,6.59-23.6,13-31.67,7-8.74,22.58-41.74,22.58-49.55s19.55-26.93,15.2-48.63c0,0,5.91-3.67,11.85-.66,2.7,1.36,5.39,4.09,7.56,9.15,5.09,11.89-2.06,45.5-8.14,53.74l-11.71,48.48s3.95,6.81,7.83,19.17a164.889,164.889,0,0,1,7.02,38.46Z" transform="translate(759.504 177.305)" fill="#fff"/>
    <path id="Path_2576" data-name="Path 2576" d="M121.5,254.75c3.27,8.95,6.74,15,6.44,27.54s-7,31.84-5.09,41.87a8.83,8.83,0,0,0-3,1.56l-10.06-2.84c10-13.89,14.76-41.25,12.15-63.39C121.71,257.82,121.59,256.25,121.5,254.75Z" transform="translate(759.504 177.305)" fill="#64dbb2" opacity="0.4"/>
    <path id="Path_2577" data-name="Path 2577" d="M183.55,187.13l-11.71,48.48s3.95,6.81,7.83,19.17h0C171.74,242,165,238.18,165,238.18c5.28-6.33,9.35-52.63,9.35-52.63s16.55-19.45,15-39.8a65,65,0,0,0-5.22-21.51c2.7,1.36,5.39,4.09,7.56,9.15C196.78,145.28,189.63,178.89,183.55,187.13Z" transform="translate(759.504 177.305)" fill="#64dbb2" opacity="0.4"/>
    <path id="Path_2578" data-name="Path 2578" d="M109.76,322.88c10-13.89,14.76-41.25,12.16-63.39s5.64-27.68,12.59-36.42,22.57-41.73,22.57-49.55,19.54-26.91,15.2-48.62c0,0,12.47-7.73,19.41,8.49,5.09,11.9-2.06,45.5-8.14,53.75l-11.7,48.47s12.49,21.55,14.84,57.63c1.5,23.05-9.18,48.73-9.18,48.73" transform="translate(759.504 177.305)" fill="none" stroke="#263238" stroke-linecap="round" stroke-linejoin="round" stroke-width="1"/>
    <path id="Path_2579" data-name="Path 2579" d="M148.32,360.41s13.13,8.08,20.79,20.86" transform="translate(759.504 177.305)" fill="none" stroke="#263238" stroke-linecap="round" stroke-linejoin="round" stroke-width="1"/>
    <path id="Path_2580" data-name="Path 2580" d="M185.2,375.7s-11.31,1.61-21.53-10.62c-6.55-7.83-26.44-11.37-31-31.85" transform="translate(759.504 177.305)" fill="none" stroke="#263238" stroke-linecap="round" stroke-linejoin="round" stroke-width="1"/>
    <g id="freepik--Hand--inject-11" transform="translate(769.83 178.305)">
      <path id="Path_2581" data-name="Path 2581" d="M349.58,436.26c-28.95-13.85-11.42-24.95-51.25-42.14s-40.23-31.88-35.43-65.66,1-69.71,12.58-72.76-9.06-49.64,4.44-66.11l66.44,129.24Z" fill="rgba(0,0,0,0.7)" opacity="0.2"/>
      <path id="Path_2582" data-name="Path 2582" d="M457.45,434.91c-1.36-3.89-2.74-8.14-3.81-12-1.38-5-2.46-9-5-13.65-.4-.74-.83-1.52-1.31-2.36-2.71-4.83-6.42-11.44-8.59-19.56-1.46-5.47,0-18.94,1.36-32,1-9.38,1.91-18.23,1.64-23.25l-.08-1.78c-.68-13.13-2.1-40.45-5-48-2.85-7.28-5.51-8.37-10.36-10.31-.5-.22-1-.42-1.58-.66-1.82-.76-4.92-2.36-8.49-4.21-8.05-4.17-18.07-9.36-23.16-10a45.361,45.361,0,0,0-14.27.66c-6.27-4.81-16.94-11-20.12-11.13-2.6-.13-8.28,1.5-11,2.35l-1.37.44a41.173,41.173,0,0,0-5.46-3.58c-.13-.07-.26-.12-.37-.17-3.53-1.45-8.86-1.5-11.77-1.42a16.961,16.961,0,0,0-1.88.12c-5.49-8.45-10.89-16.86-13.24-20.55-4.9-7.76-20.07-39.69-20.22-40a.27.27,0,0,0-.2-.16.511.511,0,0,0-.14,0c-1.18-.34-9.87-2.55-13.36,5.87-3.82,9.17,1.63,29.3,6.95,36.61,2.56,3.52,9.55,17.88,16.64,32.74-1.82,1.69-16.38,15.14-23.45,17.65-5.79,2.05-4.43,31.73-3.34,55.56.41,8.8.75,16.37.65,20.92-.2,8.8,15.81,20.92,31.33,32.64,14,10.62,28.52,21.59,30.22,29.56.47,2.24,1.81,4.06,3.41,6.11,2.67,3.4,6.11,7.41,7.57,15,.43,2.28,4.09,5.26,7,10.13H461.69C460.81,444.11,459.15,439.79,457.45,434.91ZM311.78,276.81c5.09,10.66,8.24,17,9,17.71s.71,4.09.69,7.38a59.346,59.346,0,0,0,.3,8.63c-1.24,1.09-9.07,8.22-10.65,14l-6.65-7.83-1.68-24.57C303.79,291.07,310.63,283.84,311.78,276.81Z" fill="#fff"/>
      <path id="Path_2583" data-name="Path 2583" d="M427.31,345.31c2.47,23.05,2.5,35.55,5.27,42.22,4.68,11.26,11.57,13.54,11.57,13.54a69.449,69.449,0,0,1-5.43-13.71c-1.45-5.47,0-18.94,1.36-32,1-9.38,1.92-18.24,1.66-23.26l-.09-1.78c-.68-13.12-2.1-40.44-5-48-2.84-7.28-5.51-8.37-10.36-10.32-.5-.21-1-.41-1.58-.65-1.82-.76-4.91-2.36-8.49-4.21-8.05-4.17-18.07-9.36-23.16-10a45,45,0,0,0-14.27.66c-6.27-4.81-16.94-11-20.12-11.13-2.6-.13-9.65,1.92-12.39,2.79,12,9.79,29.28,22,29.28,22,13.67,2.72,11.92,8.65,17.45,12,5,3,9.78-5.78,14-6.55,5.52-1,11.79,4.82,11.51,11.88C417.66,308.24,425.19,325.52,427.31,345.31Z" fill="#64dbb2" opacity="0.4"/>
      <path id="Path_2584" data-name="Path 2584" d="M358.21,273.88s-10.83-9-16-12-6-13.34-1.92-15.85a1.14,1.14,0,0,1,.51-.16l-.37-.17c-3.53-1.45-8.86-1.51-11.77-1.42,6,11.17,10.79,19.74,12.08,21.62C345.09,272.18,358.21,273.88,358.21,273.88Z" fill="#64dbb2" opacity="0.4"/>
      <path id="Path_2585" data-name="Path 2585" d="M341.78,413.84c.46-2.39-3.48-9.39-5.21-12.23-3.93-6.48-49.56-46.8-42.95-57.56s12.65-2.8,16.83-2.1c3,.5,11.24-4.41,11.2-4.82-.94-8.29,6.71-13.68,6.71-13.68s-.7-33-2.46-32.44-22.82-49.55-22.82-49.55-22.26-29.6-21-43.41S293,184,293,184v-.37c-1.18-.34-9.87-2.55-13.36,5.87-3.82,9.17,1.63,29.3,6.95,36.61,2.56,3.52,9.55,17.88,16.64,32.74-1.82,1.69-16.38,15.14-23.45,17.65-5.79,2.05-4.43,31.73-3.34,55.56.41,8.8.75,16.37.65,20.92-.2,8.8,15.81,20.92,31.33,32.64,14,10.62,28.52,21.59,30.22,29.56.47,2.24,1.81,4.06,3.41,6.11A40.547,40.547,0,0,1,341.78,413.84Zm-30-137c5.09,10.66,8.24,17,9,17.71s.71,4.09.69,7.38a59.346,59.346,0,0,0,.3,8.63c-1.24,1.09-9.07,8.22-10.65,14l-6.65-7.83-1.68-24.57c1-1.09,7.84-8.32,8.99-15.35Z" fill="#64dbb2" opacity="0.4"/>
      <path id="Path_2586" data-name="Path 2586" d="M352,273.75a22.74,22.74,0,0,1-11.24-7.88c-4.57-6.12-22.52-34-27.49-41.86S293,184,293,184s-9.4-3.15-13.06,5.63,1.35,28.62,6.92,36.26S318.9,292.36,321,294.26s-1.05,17.6,3.16,21.4" fill="none" stroke="#263238" stroke-linecap="round" stroke-linejoin="round" stroke-width="1"/>
      <path id="Path_2587" data-name="Path 2587" d="M322.14,310.67s-9.7,8.45-10.84,14.62l-7.2-8.47L302.4,292s8.69-8.7,9.17-16.44" fill="none" stroke="#263238" stroke-linecap="round" stroke-linejoin="round" stroke-width="1"/>
      <path id="Path_2588" data-name="Path 2588" d="M303.63,258.88s-16.11,15.2-23.77,17.91-2.07,59.66-2.45,76.15,57.95,45.22,61.53,62.1c1.42,6.72,7.3,8.09,10.89,21" fill="none" stroke="#263238" stroke-linecap="round" stroke-linejoin="round" stroke-width="1"/>
      <path id="Path_2589" data-name="Path 2589" d="M326.56,244.73s8.77-.79,13.71,1.27,25,19.29,29.84,22.58,12.12,4.54,13.5,8.09" fill="none" stroke="#263238" stroke-linecap="round" stroke-linejoin="round" stroke-width="1"/>
      <path id="Path_2590" data-name="Path 2590" d="M346.17,249.81s9-3,12.44-2.83,16.38,7.8,22.18,12.9a49.44,49.44,0,0,0,15.11,9.18" fill="none" stroke="#263238" stroke-linecap="round" stroke-linejoin="round" stroke-width="1"/>
      <path id="Path_2591" data-name="Path 2591" d="M378.68,258.15a43.889,43.889,0,0,1,14.3-.69c7.32,1,25.7,11.8,31.56,14.24s8.66,2.89,11.74,10.77,4.49,37.84,5.11,49.68-5.55,45.75-3,55.29,7.15,16.9,9.94,22" fill="none" stroke="#263238" stroke-linecap="round" stroke-linejoin="round" stroke-width="1"/>
      <path id="Path_2592" data-name="Path 2592" d="M302.4,292s-1.4-5.85-3.4-6.6" fill="none" stroke="#263238" stroke-linecap="round" stroke-linejoin="round" stroke-width="1"/>
      <path id="Path_2593" data-name="Path 2593" d="M304.1,316.82a74.518,74.518,0,0,0,2.73,10.05c1.44,3.55-.8,8.69-.8,8.69" fill="none" stroke="#263238" stroke-linecap="round" stroke-linejoin="round" stroke-width="1"/>
      <path id="Path_2594" data-name="Path 2594" d="M311.3,325.29c-.23,5.68,5.42,12.32,6.79,11.38" fill="none" stroke="#263238" stroke-linecap="round" stroke-linejoin="round" stroke-width="1"/>
      <path id="Path_2595" data-name="Path 2595" d="M340.07,292s6.07-9.82,11.89-10.3,12.54,7.78,16.13,7,8.11-6.06,14.15-7,8.87,1.94,13.66,2.18,5.28-6.16,11-7,7.67,2,11.51,2.74,4.8-2.29,7.91-4" fill="none" stroke="#263238" stroke-linecap="round" stroke-linejoin="round" stroke-width="1"/>
    </g>
    <text id="_1920-get-started-text" data-name="1920-get-started-text" transform="translate(970 302)" fill="#263238" font-size="17" font-family="Graphik-Bold, Graphik" font-weight="700"><tspan x="0" y="0">RIWAYAT</tspan></text>
    <path id="Path_2596" data-name="Path 2596" d="M-19625.855-24452.33s4.867-6.658,9.566-3.916,7.635,5.09,9.984,3.916,6.658-4.9,8.811-3.916,5.676,4.895,7.83,3.916,5.092-4.7,8.027-3.916,4.7,3.721,8.027,3.916,5.09-1.762,7.635-2.74,3.916.783,6.656,1.566,6.656-2.742,6.656-2.742" transform="translate(20594.811 24789)" fill="none" stroke="#263238" stroke-width="1"/>
    <path id="Path_2597" data-name="Path 2597" d="M-19625.855-24452.33s4.867-6.658,9.566-3.916,7.635,5.09,9.984,3.916,6.658-4.9,8.811-3.916,5.676,4.895,7.83,3.916,5.092-4.7,8.027-3.916,4.7,3.721,8.027,3.916,5.09-1.762,7.635-2.74,3.916.783,6.656,1.566,6.656-2.742,6.656-2.742" transform="translate(20595.855 24826.859)" fill="none" stroke="#263238" stroke-width="1"/>
    <path id="Path_2598" data-name="Path 2598" d="M-19625.855-24452.33s4.867-6.658,9.566-3.916,7.635,5.09,9.984,3.916,6.658-4.9,8.811-3.916,5.676,4.895,7.83,3.916,5.092-4.7,8.027-3.916,4.7,3.721,8.027,3.916,5.09-1.762,7.635-2.74,3.916.783,6.656,1.566,6.656-2.742,6.656-2.742" transform="translate(20594.811 24861.139)" fill="none" stroke="#263238" stroke-width="1"/>
    <path id="Path_2600" data-name="Path 2600" d="M-19625.855-24454.412s2.652-3.631,5.217-2.137,4.162,2.777,5.443,2.137,3.631-2.67,4.8-2.137,3.1,2.67,4.271,2.137,2.775-2.562,4.377-2.137,2.563,2.031,4.377,2.137,2.777-.961,4.164-1.494,2.135.428,3.629.854,3.631-1.5,3.631-1.5" transform="translate(20614.82 24946.955)" fill="none" stroke="#fff" stroke-width="1"/>
    <path id="Path_2599" data-name="Path 2599" d="M-19552.66-24452.33s-4.867-6.658-9.566-3.916-7.635,5.09-9.984,3.916-6.658-4.9-8.811-3.916-5.676,4.895-7.83,3.916-5.092-4.7-8.027-3.916-4.7,3.721-8.027,3.916-5.09-1.762-7.635-2.74-3.916.783-6.656,1.566-6.656-2.742-6.656-2.742" transform="translate(20596.809 24914.039)" fill="none" stroke="#263238" stroke-width="1"/>
  </g>
</svg>
