<svg xmlns="http://www.w3.org/2000/svg" width="300" height="75" viewBox="0 0 300 75">
  <g id="lineart" transform="translate(-50 -436.584)">
    <path id="path1123" d="M164.437,759.076a1.027,1.027,0,0,1-.413-.087c-.463-.2-.792-.717-1.066-1.669a20.988,20.988,0,0,1-.541-2.835c-.309-2.256-.55-5.242-.8-8.4-.317-3.935-.645-8-1.151-11.421-.552-3.724-1.229-6.01-2.012-6.794-.116-.116-.268-.231-.347-.207-.129.04-.819.418-1.749,3.914-.63,2.369-1.183,5.4-1.717,8.336-.449,2.464-.873,4.792-1.32,6.609-.579,2.353-1.072,3.4-1.761,3.748a3.831,3.831,0,0,1-4.129-.82c-1.313-1.053-2.53-2.886-2.2-4.21a.683.683,0,0,1,1.325.331c-.121.484.492,1.821,1.728,2.813.46.369,1.636,1.17,2.655.668a2.185,2.185,0,0,0,.456-.846,17.734,17.734,0,0,0,.632-2.148c.425-1.758.835-4.008,1.269-6.39.539-2.959,1.1-6.02,1.741-8.442.821-3.085,1.617-4.541,2.662-4.867a1.646,1.646,0,0,1,1.72.545c1.023,1.023,1.785,3.425,2.4,7.559.513,3.463.843,7.555,1.162,11.512.242,3,.471,5.842.756,8.023a24.125,24.125,0,0,0,.468,2.675,5.047,5.047,0,0,0,.286.868,6.176,6.176,0,0,0,.6-1.375,34.518,34.518,0,0,0,.935-3.571c.622-2.851,1.219-6.424,1.8-9.88.527-3.151,1.025-6.127,1.507-8.361a23.3,23.3,0,0,1,.726-2.752c.253-.71.6-1.44,1.283-1.469a1.024,1.024,0,0,1,.951.619,4.446,4.446,0,0,1,.385,1.055,94.234,94.234,0,0,1,1.689,10.55c.333,2.669.647,5.19,1.021,7.149a16.918,16.918,0,0,0,.592,2.379,2.771,2.771,0,0,0,.412.838,7.445,7.445,0,0,0,.607-1.4c.3-.828.655-1.894,1.063-3.129a90.9,90.9,0,0,1,3.562-9.555,17.583,17.583,0,0,1,2.249-3.778,3.651,3.651,0,0,1,2.878-1.626c1.239.063,2.333,1.051,3.344,3.02a39.625,39.625,0,0,1,2.844,8.977.683.683,0,0,1-1.334.295,38.393,38.393,0,0,0-2.725-8.648c-.747-1.456-1.507-2.244-2.2-2.279-.517-.026-1.108.356-1.76,1.137a16.539,16.539,0,0,0-2.061,3.482,89.893,89.893,0,0,0-3.5,9.4c-1.18,3.575-1.6,4.765-2.1,5.171a1.269,1.269,0,0,1-1.322.259c-.811-.325-1.35-1.519-1.858-4.123-.4-2.025-.721-4.634-1.066-7.4a93.465,93.465,0,0,0-1.656-10.38l-.016-.063c-.045.127-.094.278-.148.456-.195.648-.4,1.514-.637,2.647-.441,2.138-.9,4.866-1.38,7.753-.581,3.471-1.181,7.061-1.81,9.945-.975,4.47-1.654,5.5-2.191,5.925A1.178,1.178,0,0,1,164.437,759.076Z" transform="translate(-41.696 -276.614)" fill="#525e6e"/>
    <g id="g1156" transform="translate(50 449.167)">
      <path id="path1127" d="M102.885,895.152a.684.684,0,0,1-.149-.017c-.125-.028-.326-.07-.581-.124-1.253-.265-3.86-.815-6.134-1.457a22.531,22.531,0,0,1-3.01-1.032,4.615,4.615,0,0,1-1.026-.6,1.173,1.173,0,0,1-.513-1.121,72.781,72.781,0,0,1,3.745-9.811,40.644,40.644,0,0,1,3.207-5.944,9.764,9.764,0,0,1,1.67-1.95,2.456,2.456,0,0,1,1.939-.71,74.819,74.819,0,0,1,9.4,2.54.683.683,0,1,1-.437,1.294,75.166,75.166,0,0,0-9.172-2.484c-.127-.02-.833-.012-2.274,2.084a39.34,39.34,0,0,0-3.09,5.737,81.179,81.179,0,0,0-3.605,9.314c.217.182,1.044.694,4.042,1.507,2.1.57,4.424,1.06,5.541,1.3.259.055.463.1.595.127a.683.683,0,0,1-.148,1.35Z" transform="translate(-91.459 -872.367)" fill="#525e6e"/>
      <path id="path1129" d="M110.447,895.573a.683.683,0,0,1-.683-.674c-.033-2.4.911-5.81,2.8-10.129,1.4-3.181,2.821-5.714,2.835-5.739a.683.683,0,0,1,1.189.672c-.055.1-5.536,9.87-5.463,15.177a.683.683,0,0,1-.674.692Z" transform="translate(-97.156 -874.333)" fill="#525e6e"/>
      <path id="path1131" d="M111.182,879.07a.68.68,0,0,1-.339-.091,18.7,18.7,0,0,0-5.5-1.554l-.224-.041a.683.683,0,1,1,.247-1.343l.224.041a19.554,19.554,0,0,1,5.929,1.713.683.683,0,0,1-.34,1.276Z" transform="translate(-95.537 -873.507)" fill="#525e6e"/>
      <path id="path1135" d="M109.843,883.8a.68.68,0,0,1-.349-.1,21.322,21.322,0,0,0-5.8-1.962l-.7-.169a.683.683,0,1,1,.321-1.328l.7.168a22.272,22.272,0,0,1,6.188,2.117.683.683,0,0,1-.35,1.27Z" transform="translate(-94.884 -874.814)" fill="#525e6e"/>
      <path id="path1137" d="M106.84,890.765a.68.68,0,0,1-.335-.088,24.925,24.925,0,0,0-7.031-2.133.683.683,0,1,1,.271-1.339,25.913,25.913,0,0,1,7.431,2.282.683.683,0,0,1-.336,1.278Z" transform="translate(-93.783 -876.981)" fill="#525e6e"/>
    </g>
    <g id="g1168" transform="translate(171.949 436.584) rotate(44.914)">
      <path id="path1158" d="M8.409,16.769a.685.685,0,0,1-.149-.016l-.415-.089c-.9-.191-2.782-.587-4.423-1.051a16.375,16.375,0,0,1-2.192-.752C.86,14.693-.125,14.247.013,13.418a52.707,52.707,0,0,1,2.708-7.1,29.406,29.406,0,0,1,2.323-4.3C6.072.516,6.956-.118,7.826.018a54.032,54.032,0,0,1,6.791,1.834.683.683,0,0,1-.437,1.294A53.879,53.879,0,0,0,7.616,1.368s-.454-.026-1.445,1.415a28.053,28.053,0,0,0-2.2,4.091,60.451,60.451,0,0,0-2.55,6.548,11.486,11.486,0,0,0,2.824,1c1.482.4,3.105.741,3.885.905l.43.092a.683.683,0,0,1-.147,1.35Z" transform="translate(0 0)" fill="#525e6e"/>
      <path id="path1160" d="M.683,12.528A.683.683,0,0,1,0,11.854C-.056,7.722,3.912.646,4.081.347a.683.683,0,0,1,1.189.672c-.042.074-3.955,7.054-3.9,10.817a.683.683,0,0,1-.674.692Z" transform="translate(9.067 3.13)" fill="#525e6e"/>
      <path id="path1162" d="M4.952,2.57a.68.68,0,0,1-.339-.091,13.336,13.336,0,0,0-3.891-1.1l-.162-.03A.683.683,0,0,1,.807.011l.161.03A14.186,14.186,0,0,1,5.292,1.295a.683.683,0,0,1-.34,1.276Z" transform="translate(6.491 1.815)" fill="#525e6e"/>
      <path id="path1164" d="M5.5,2.954a.68.68,0,0,1-.349-.1A14.963,14.963,0,0,0,1.03,1.468L.523,1.347A.683.683,0,0,1,.844.019l.5.12a16.152,16.152,0,0,1,4.5,1.544.683.683,0,0,1-.35,1.27Z" transform="translate(5.451 3.895)" fill="#525e6e"/>
      <path id="path1166" d="M5.882,2.953a.68.68,0,0,1-.335-.088,17.782,17.782,0,0,0-5-1.513A.683.683,0,0,1,.818.014a18.768,18.768,0,0,1,5.4,1.662.683.683,0,0,1-.336,1.278Z" transform="translate(3.699 7.343)" fill="#525e6e"/>
    </g>
    <g id="g1180" transform="matrix(-0.93, 0.367, -0.367, -0.93, 208.597, 483.702)">
      <path id="path1170" d="M8.622,19.052c-.88,0-1.793-.728-2.849-2.266A33.667,33.667,0,0,1,3.115,11.86,60.449,60.449,0,0,1,.013,3.73c-.146-.875.933-1.364,1.34-1.548a18.711,18.711,0,0,1,2.5-.858C5.737.792,7.892.337,8.927.118l.478-.1A.683.683,0,1,1,9.7,1.35l-.492.105c-.907.191-2.793.59-4.509,1.052A11.905,11.905,0,0,0,1.409,3.7a68.1,68.1,0,0,0,2.949,7.6A32.367,32.367,0,0,0,6.9,16.013c1.194,1.737,1.738,1.674,1.761,1.671a61.947,61.947,0,0,0,7.554-2.046.683.683,0,0,1,.437,1.294,61.921,61.921,0,0,1-7.781,2.1A1.606,1.606,0,0,1,8.622,19.052Z" transform="translate(0 0)" fill="#525e6e"/>
      <path id="path1172" d="M5.268,14.182a.683.683,0,0,1-.6-.347C4.479,13.493-.064,5.392,0,.674A.683.683,0,0,1,1.367.692c-.06,4.35,4.45,12.39,4.5,12.471a.683.683,0,0,1-.594,1.019Z" transform="translate(10.41 1.276)" fill="#525e6e"/>
      <path id="path1174" d="M.682,2.749A.683.683,0,0,1,.56,1.394L.744,1.36A15.371,15.371,0,0,0,5.245.091a.683.683,0,0,1,.679,1.185A16.221,16.221,0,0,1,.991,2.7l-.184.034A.687.687,0,0,1,.682,2.749Z" transform="translate(7.453 14.219)" fill="#525e6e"/>
      <path id="path1176" d="M.683,3.189a.683.683,0,0,1-.16-1.347L1.1,1.7A17.251,17.251,0,0,0,5.864.1a.683.683,0,0,1,.7,1.173A18.476,18.476,0,0,1,1.421,3.031l-.578.138A.685.685,0,0,1,.683,3.189Z" transform="translate(6.258 11.391)" fill="#525e6e"/>
      <path id="path1178" d="M.682,3.189A.683.683,0,0,1,.548,1.836,20.493,20.493,0,0,0,6.318.088a.683.683,0,1,1,.67,1.19,21.479,21.479,0,0,1-6.17,1.9A.686.686,0,0,1,.682,3.189Z" transform="translate(4.247 7.432)" fill="#525e6e"/>
    </g>
    <path id="Path_1780" data-name="Path 1780" d="M259.219,36.975a.684.684,0,0,1-.629-.948,91.875,91.875,0,0,0,4.908-17.3c1.553-8.761,2.15-20.968-3.829-29.373-5.327-7.488-15.679-12.949-28.4-14.981-9.507-1.519-18.862-.909-25.752,1.493h0a14.371,14.371,0,0,1,6.938,4.568,14.473,14.473,0,0,1,3.177,6.659,10.262,10.262,0,0,1-.958,6.784,8.827,8.827,0,0,1-2.041,2.5,10.468,10.468,0,0,1-3.1,1.8,19.663,19.663,0,0,1-9.455.709A12.078,12.078,0,0,1,194.1-3.405a7.724,7.724,0,0,1-2.805-4.329,9.407,9.407,0,0,1-.12-3.692,13.062,13.062,0,0,1,1.251-3.812,18.754,18.754,0,0,1,6.077-6.853,19.889,19.889,0,0,1,1.86-1.213,16.262,16.262,0,0,0-4.119.856c-.345.137-.506.2-.664.273l-.032.013a272.279,272.279,0,0,1-33.8,10.1,343.521,343.521,0,0,1-34.108,6.046A437.627,437.627,0,0,1,72.6-2.674q-4.071,0-8.177-.068c-8.653-.143-17.447-.515-26.136-1.105C31.338-4.32,24.437-4.932,17.778-5.668,6.434-6.922-.369-8.116-.436-8.128A.684.684,0,0,1-.99-8.92.683.683,0,0,1-.2-9.474c.067.012,6.841,1.2,18.15,2.45C28.387-5.872,44.93-4.43,64.475-4.109q3.809.063,7.875.065c34.054,0,80.621-3.642,122.7-19.392.168-.073.341-.145.7-.288l.03-.011a17.54,17.54,0,0,1,5.148-.979,15.018,15.018,0,0,1,2.1.08,39.238,39.238,0,0,1,9.848-2.622,63.123,63.123,0,0,1,18.6.275A57.847,57.847,0,0,1,248.2-21.751,33.743,33.743,0,0,1,260.78-11.443a29.6,29.6,0,0,1,4.966,14.76,60.182,60.182,0,0,1-.909,15.672,94.985,94.985,0,0,1-3.146,12.461c-1.017,3.128-1.81,5.028-1.843,5.107A.683.683,0,0,1,259.219,36.975ZM203.2-23.223a21.061,21.061,0,0,0-3.9,2.237l-.014.01c-4.94,3.46-7.683,8.772-6.672,12.917.744,3.049,3.455,5.032,7.633,5.582,6.541.861,11.237-.668,13.224-4.306,1.844-3.376.995-8.272-2.065-11.906A12.8,12.8,0,0,0,203.2-23.223Z" transform="translate(79.344 474.541)" fill="#525e6e"/>
    <path id="Path_1781" data-name="Path 1781" d="M3.065,10.337a.683.683,0,0,1-.647-.464L-.964-.1A.683.683,0,0,1-.536-.964.683.683,0,0,1,.33-.536L3.49,8.783,13.8,5.185a.683.683,0,1,1,.45,1.29L3.29,10.3A.683.683,0,0,1,3.065,10.337Z" transform="translate(335.291 501.247)" fill="#525e6e"/>
  </g>
</svg>
